<?xml version="1.0" encoding="utf-8"?>
<!-- Generator: Adobe Illustrator 24.0.1, SVG Export Plug-In . SVG Version: 6.00 Build 0)  -->
<svg version="1.1" id="Layer_1" xmlns="http://www.w3.org/2000/svg" xmlns:xlink="http://www.w3.org/1999/xlink" x="0px" y="0px"
	 viewBox="0 0 489.8 152.9" style="enable-background:new 0 0 489.8 152.9;" xml:space="preserve">
<style type="text/css">
	.st0{fill:#FFFFFF;}
</style>
<path class="st0" d="M44.5,59l14.6,52.4c0.3,1.1,1.3,1.9,2.4,1.9h63.7c1.3,0,2.5-0.9,2.8-2.2l12.4-47.6L44.5,59z"/>
<path class="st0" d="M129.4,122.5H58.2c-3.5,0-6.7-2.4-7.6-5.8L34.7,59.5C33,53.4,27.4,49.1,21,49.1h-6.4c-1,0-1.9-0.8-1.9-1.9
	c0-1,0.8-1.9,1.9-1.9H21c8,0,15.1,5.4,17.2,13.1l15.9,57.3c0.5,1.8,2.2,3.1,4.1,3.1h71.2c1,0,1.9,0.8,1.9,1.9
	S130.4,122.5,129.4,122.5z"/>
<circle class="st0" cx="58.4" cy="133.8" r="7.8"/>
<circle class="st0" cx="126.7" cy="133.8" r="7.8"/>
<g>
	<path d="M194,79.5L194,79.5L194,79.5L194,79.5L194,79.5L194,79.5L194,79.5z"/>
	<path d="M194.1,79.5C194.1,79.5,194.1,79.5,194.1,79.5C194,79.5,194,79.5,194.1,79.5C194,79.5,194,79.5,194.1,79.5
		C194.1,79.5,194.1,79.5,194.1,79.5z M194,79.5C194,79.5,194,79.5,194,79.5C194,79.5,194.1,79.5,194,79.5
		C194.1,79.5,194.1,79.5,194,79.5C194,79.5,194,79.5,194,79.5z"/>
	<path d="M194.1,79.5C194.1,79.5,194.1,79.5,194.1,79.5L194.1,79.5L194.1,79.5C194.1,79.5,194.1,79.5,194.1,79.5
		C194.1,79.5,194.1,79.5,194.1,79.5L194.1,79.5C194.1,79.5,194.1,79.5,194.1,79.5C194.1,79.5,194.1,79.5,194.1,79.5
		C194.1,79.5,194.1,79.5,194.1,79.5L194.1,79.5L194.1,79.5L194.1,79.5z"/>
	<path d="M194.1,79.5C194.1,79.5,194.1,79.5,194.1,79.5C194.1,79.5,194.1,79.5,194.1,79.5L194.1,79.5
		C194.1,79.5,194.1,79.5,194.1,79.5C194.1,79.5,194.1,79.5,194.1,79.5C194.1,79.5,194.1,79.5,194.1,79.5
		C194.1,79.5,194.2,79.5,194.1,79.5C194.2,79.5,194.2,79.5,194.1,79.5L194.1,79.5z M194.1,79.5C194.1,79.5,194.1,79.5,194.1,79.5
		C194.1,79.5,194.1,79.5,194.1,79.5L194.1,79.5z"/>
	<path d="M194.2,79.5C194.2,79.5,194.2,79.5,194.2,79.5L194.2,79.5L194.2,79.5C194.2,79.5,194.2,79.5,194.2,79.5
		C194.2,79.5,194.2,79.5,194.2,79.5C194.2,79.5,194.2,79.5,194.2,79.5C194.2,79.5,194.2,79.5,194.2,79.5
		C194.2,79.5,194.2,79.5,194.2,79.5L194.2,79.5L194.2,79.5L194.2,79.5C194.2,79.5,194.2,79.5,194.2,79.5
		C194.2,79.5,194.2,79.5,194.2,79.5C194.2,79.5,194.2,79.5,194.2,79.5L194.2,79.5L194.2,79.5L194.2,79.5
		C194.2,79.5,194.2,79.5,194.2,79.5C194.2,79.5,194.2,79.5,194.2,79.5C194.2,79.5,194.2,79.5,194.2,79.5L194.2,79.5L194.2,79.5
		L194.2,79.5z"/>
	<path d="M194.3,79.5C194.3,79.5,194.3,79.5,194.3,79.5C194.3,79.5,194.3,79.5,194.3,79.5C194.3,79.5,194.3,79.5,194.3,79.5
		C194.3,79.5,194.3,79.5,194.3,79.5z M194.3,79.5L194.3,79.5L194.3,79.5L194.3,79.5L194.3,79.5z"/>
	<path d="M194.3,79.5C194.3,79.5,194.3,79.5,194.3,79.5L194.3,79.5L194.3,79.5L194.3,79.5C194.3,79.5,194.3,79.5,194.3,79.5
		C194.3,79.5,194.3,79.5,194.3,79.5C194.3,79.5,194.3,79.5,194.3,79.5C194.3,79.5,194.3,79.5,194.3,79.5L194.3,79.5L194.3,79.5
		L194.3,79.5z M194.3,79.5C194.3,79.5,194.3,79.5,194.3,79.5C194.3,79.5,194.3,79.5,194.3,79.5C194.3,79.5,194.3,79.5,194.3,79.5
		C194.3,79.5,194.3,79.5,194.3,79.5C194.3,79.5,194.3,79.5,194.3,79.5C194.3,79.5,194.3,79.5,194.3,79.5L194.3,79.5z"/>
	<path d="M194.3,79.5C194.3,79.5,194.4,79.5,194.3,79.5C194.4,79.5,194.4,79.5,194.3,79.5C194.4,79.5,194.4,79.5,194.3,79.5
		C194.4,79.5,194.3,79.5,194.3,79.5C194.3,79.5,194.4,79.5,194.3,79.5C194.4,79.5,194.4,79.5,194.3,79.5L194.3,79.5
		C194.4,79.5,194.4,79.5,194.3,79.5C194.4,79.5,194.4,79.5,194.3,79.5C194.4,79.5,194.4,79.5,194.3,79.5
		C194.4,79.5,194.4,79.5,194.3,79.5C194.4,79.5,194.4,79.5,194.3,79.5C194.4,79.5,194.3,79.5,194.3,79.5L194.3,79.5z"/>
	<path d="M194.4,79.5C194.4,79.5,194.4,79.5,194.4,79.5L194.4,79.5L194.4,79.5C194.4,79.5,194.4,79.5,194.4,79.5
		C194.4,79.5,194.4,79.5,194.4,79.5L194.4,79.5L194.4,79.5L194.4,79.5C194.4,79.5,194.4,79.5,194.4,79.5
		C194.4,79.5,194.4,79.5,194.4,79.5C194.4,79.5,194.4,79.5,194.4,79.5L194.4,79.5L194.4,79.5L194.4,79.5z"/>
	<path d="M194.4,79.5C194.4,79.5,194.4,79.5,194.4,79.5L194.4,79.5L194.4,79.5C194.5,79.5,194.5,79.5,194.4,79.5
		C194.5,79.5,194.5,79.5,194.4,79.5C194.5,79.5,194.5,79.5,194.4,79.5C194.5,79.5,194.5,79.5,194.4,79.5
		C194.5,79.5,194.5,79.5,194.4,79.5L194.4,79.5L194.4,79.5L194.4,79.5C194.5,79.5,194.5,79.5,194.4,79.5
		C194.5,79.5,194.5,79.5,194.4,79.5C194.5,79.5,194.5,79.5,194.4,79.5L194.4,79.5L194.4,79.5L194.4,79.5
		C194.5,79.5,194.5,79.5,194.4,79.5C194.5,79.5,194.5,79.5,194.4,79.5C194.5,79.5,194.5,79.5,194.4,79.5L194.4,79.5L194.4,79.5
		L194.4,79.5z"/>
</g>
<g>
	<path class="st0" d="M198.2,90.5c0-1.5-0.6-2.6-1.8-3.4c-1.2-0.8-3.3-1.5-6.1-2.1c-2.9-0.6-5.2-1.4-7.1-2.3c-4.2-2-6.3-5-6.3-8.8
		c0-3.2,1.4-5.9,4.1-8.1c2.7-2.2,6.2-3.2,10.3-3.2c4.5,0,8.1,1.1,10.8,3.3c2.4,1.9,3.8,4.4,4.1,7.3c0.1,0.7-0.5,1.3-1.2,1.3h-6.1
		c-0.6,0-1-0.4-1.1-1c-0.2-1.2-0.8-2.2-1.7-3.1c-1.2-1.1-2.8-1.6-4.8-1.6c-1.8,0-3.3,0.4-4.5,1.3c-1.2,0.9-1.7,2-1.7,3.4
		c0,1.3,0.5,2.3,1.6,3c1.1,0.7,3.3,1.4,6.6,2.2c3.3,0.7,5.9,1.6,7.7,2.6c1.9,1,3.3,2.2,4.2,3.6c0.9,1.4,1.4,3.1,1.4,5.1
		c0,3.4-1.4,6.1-4.2,8.2c-2.8,2.1-6.4,3.1-10.9,3.1c-3.1,0-5.8-0.6-8.2-1.7c-2.4-1.1-4.3-2.6-5.6-4.6c-1.1-1.6-1.7-3.2-1.9-5
		c-0.1-0.7,0.5-1.3,1.1-1.3h5.9c0.6,0,1,0.4,1.1,0.9c0.3,1.5,1,2.7,2.1,3.6c1.4,1.1,3.2,1.6,5.5,1.6c2.2,0,3.9-0.4,5-1.3
		C197.6,93,198.2,91.9,198.2,90.5z"/>
	<path class="st0" d="M222,67.4c2.7-3.2,6.2-4.8,10.4-4.8c8,0,12,4.5,12.1,13.6v23.2c0,0.6-0.5,1.1-1.1,1.1h-6.1
		c-0.6,0-1.1-0.5-1.1-1.1V76.6c0-2.6-0.6-4.4-1.7-5.5c-1.1-1.1-2.8-1.6-4.9-1.6c-3.4,0-5.9,1.5-7.5,4.5v25.5c0,0.6-0.5,1.1-1.1,1.1
		h-6.1c-0.6,0-1.1-0.5-1.1-1.1V48.8c0-0.6,0.5-1.1,1.1-1.1h6.1c0.6,0,1.1,0.5,1.1,1.1V67.4z"/>
	<path class="st0" d="M251.4,81.7c0-3.7,0.7-7,2.2-9.9c1.4-2.9,3.5-5.2,6.1-6.8c2.6-1.6,5.6-2.4,9-2.4c5,0,9.1,1.6,12.3,4.9
		c3.1,3.2,4.8,7.5,5.1,12.9l0,2c0,3.7-0.7,7-2.1,9.9c-1.4,2.9-3.4,5.1-6.1,6.7c-2.6,1.6-5.7,2.4-9.1,2.4c-5.3,0-9.5-1.8-12.6-5.3
		c-3.2-3.5-4.7-8.2-4.7-14V81.7z M259.8,82.4c0,3.8,0.8,6.8,2.4,9c1.6,2.2,3.8,3.3,6.6,3.3s5-1.1,6.6-3.3s2.4-5.4,2.4-9.7
		c0-3.8-0.8-6.8-2.4-9c-1.6-2.2-3.8-3.3-6.6-3.3c-2.7,0-4.9,1.1-6.5,3.3C260.6,74.8,259.8,78.1,259.8,82.4z"/>
	<path class="st0" d="M325.9,82.4c0,5.8-1.3,10.4-3.9,13.8c-2.6,3.4-6.1,5.2-10.6,5.2c-4.1,0-7.4-1.3-9.8-4v16.5
		c0,0.6-0.5,1.1-1.1,1.1h-6.1c-0.6,0-1.1-0.5-1.1-1.1V64.5c0-0.6,0.5-1.1,1.1-1.1h5.5c0.6,0,1.1,0.5,1.1,1l0.3,2.7
		c2.5-3,5.8-4.5,10-4.5c4.6,0,8.1,1.7,10.7,5.1c2.6,3.4,3.9,8.1,3.9,14.1V82.4z M317.5,81.7c0-3.7-0.7-6.7-2.2-8.9
		c-1.5-2.2-3.6-3.3-6.4-3.3c-3.4,0-5.9,1.4-7.4,4.2v16.6c1.5,2.9,4,4.3,7.5,4.3c2.7,0,4.8-1.1,6.3-3.2
		C316.8,89.3,317.5,86.1,317.5,81.7z"/>
	<path class="st0" d="M349.4,101.4c-5.3,0-9.6-1.7-12.9-5s-5-7.8-5-13.4v-1c0-3.7,0.7-7.1,2.2-10c1.4-2.9,3.5-5.2,6.1-6.8
		c2.6-1.6,5.5-2.4,8.7-2.4c5.1,0,9,1.6,11.8,4.9c2.8,3.2,4.2,7.8,4.2,13.8v2.2c0,0.6-0.5,1.1-1.1,1.1H340c0.3,3.1,1.3,5.5,3.1,7.3
		c1.8,1.8,4.1,2.7,6.8,2.7c3.5,0,6.3-1.3,8.6-3.8c0.4-0.5,1.2-0.5,1.6,0l2.9,2.8c0.4,0.4,0.5,1,0.1,1.5c-1.4,1.8-3.2,3.3-5.4,4.4
		C355.3,100.8,352.5,101.4,349.4,101.4z M348.4,69.4c-2.3,0-4.2,0.8-5.6,2.4c-1.4,1.6-2.3,3.9-2.7,6.7h16v-0.6
		c-0.2-2.8-0.9-4.9-2.2-6.4C352.5,70.1,350.7,69.4,348.4,69.4z"/>
	<path class="st0" d="M387.3,101.4c-5.3,0-9.6-1.7-12.9-5c-3.3-3.3-5-7.8-5-13.4v-1c0-3.7,0.7-7.1,2.2-10c1.4-2.9,3.5-5.2,6.1-6.8
		c2.6-1.6,5.5-2.4,8.7-2.4c5.1,0,9,1.6,11.8,4.9c2.8,3.2,4.2,7.8,4.2,13.8v2.2c0,0.6-0.5,1.1-1.1,1.1h-23.2c0.3,3.1,1.3,5.5,3.1,7.3
		c1.8,1.8,4.1,2.7,6.8,2.7c3.5,0,6.3-1.3,8.6-3.8c0.4-0.5,1.2-0.5,1.6,0l2.9,2.8c0.4,0.4,0.5,1,0.1,1.5c-1.4,1.8-3.2,3.3-5.4,4.4
		C393.2,100.8,390.4,101.4,387.3,101.4z M386.3,69.4c-2.3,0-4.2,0.8-5.6,2.4c-1.4,1.6-2.3,3.9-2.7,6.7h16v-0.6
		c-0.2-2.8-0.9-4.9-2.2-6.4C390.5,70.1,388.6,69.4,386.3,69.4z"/>
	<path class="st0" d="M419.3,55.4v7.9h5.4c0.6,0,1.1,0.5,1.1,1.1v3.9c0,0.6-0.5,1.1-1.1,1.1h-5.4v20.8c0,1.4,0.3,2.5,0.8,3.1
		c0.6,0.6,1.6,0.9,3,0.9c0.5,0,1.1,0,1.6-0.1c0.7-0.1,1.3,0.4,1.3,1.1v4.4c0,0.4-0.3,0.8-0.7,0.9c-1.7,0.4-3.3,0.6-4.8,0.6
		c-6.4,0-9.7-3.6-9.7-10.7V69.6h-5c-0.6,0-1.1-0.5-1.1-1.1v-3.9c0-0.6,0.5-1.1,1.1-1.1h5v-7.9c0-0.6,0.5-1.1,1.1-1.1h6.1
		C418.8,54.3,419.3,54.8,419.3,55.4z"/>
	<path class="st0" d="M454.4,100.3c-0.3-0.7-0.6-1.8-0.8-3.1c-2.7,2.8-5.9,4.2-9.8,4.2c-3.7,0-6.8-1.1-9.2-3.2
		c-2.4-2.1-3.6-4.8-3.6-7.9c0-4,1.5-7,4.4-9.2c3-2.1,7.2-3.2,12.7-3.2h5.1v-2.4c0-1.9-0.5-3.5-1.6-4.6c-1.1-1.2-2.7-1.7-4.9-1.7
		c-1.9,0-3.5,0.5-4.7,1.4c-1.2,1-1.8,2.2-1.8,3.6l-7.1,0c-0.7,0-1.2-0.6-1.1-1.3c0.2-1.6,0.9-3,1.9-4.4c1.4-1.8,3.2-3.2,5.5-4.2
		c2.3-1,4.9-1.5,7.8-1.5c4.4,0,7.9,1.1,10.5,3.3c2.6,2.2,3.9,5.3,4,9.3v16.8c0,2.5,0.8,6,1.2,7.7c0.1,0.5-0.2,0.9-0.7,0.9l-7.2,0
		C454.7,100.7,454.5,100.6,454.4,100.3z M445.4,94.7c1.7,0,3.2-0.4,4.7-1.2c1.5-0.8,2.6-1.9,3.3-3.2v-7h-4.5c-3.1,0-5.4,0.5-7,1.6
		c-1.6,1.1-2.3,2.6-2.3,4.6c0,1.6,0.5,2.9,1.6,3.8C442.2,94.2,443.6,94.7,445.4,94.7z"/>
</g>
<path class="st0" d="M132.5,53.1c-0.4-0.2-0.8-0.4-1.2-0.6c-1.8-0.9-3.7-1.8-5.5-2.7c-0.6-0.3-0.9-0.7-1-1.4c-0.1-0.7-0.1-1.3-0.2-2
	c-0.1-0.7,0.1-1.2,0.7-1.6c1.9-1.4,3.8-2.8,5.6-4.2c0.7-0.5,0.8-0.8,0.5-1.6c-0.9-2.1-1.7-4.1-2.6-6.2c-0.3-0.8-0.6-1-1.5-0.9
	c-2.4,0.3-4.8,0.5-7.2,0.8c-0.7,0.1-1.1-0.1-1.5-0.6c-0.3-0.4-0.6-0.8-1-1.2c-0.5-0.6-0.6-1.2-0.3-2c0.9-2.2,1.7-4.5,2.5-6.7
	c0.2-0.5,0.1-1-0.3-1.3c-2-1.4-4-2.8-6-4.2c-0.5-0.3-0.9-0.3-1.3,0c-0.6,0.5-1.2,1-1.8,1.5c-1.3,1.1-2.7,2.2-4,3.3
	c-0.5,0.4-1,0.5-1.5,0.3c-0.5-0.2-1.1-0.4-1.7-0.6c-0.6-0.2-0.9-0.6-1-1.2c-0.5-2.4-1.1-4.8-1.6-7.2c-0.2-0.7-0.4-1-1.2-1
	c-2.3-0.1-4.6-0.3-6.9-0.4c-0.9-0.1-1.2,0.1-1.4,1c-0.7,2.3-1.5,4.7-2.3,7c-0.1,0.5-0.4,0.7-0.9,0.8c-0.7,0.1-1.3,0.3-2,0.4
	c-0.7,0.2-1.2,0-1.6-0.5c-1.7-1.7-3.5-3.5-5.2-5.2c-0.5-0.5-0.9-0.6-1.5-0.2c-2,1.1-4,2.2-6,3.3c-0.6,0.4-0.8,0.7-0.6,1.5
	c0.6,2.3,1.2,4.5,1.8,7c0.2,0.6,0,1.2-0.6,1.7c-0.5,0.4-1,0.9-1.4,1.4c-0.5,0.5-1.1,0.7-1.8,0.5c-2.4-0.5-4.8-1-7.2-1.6
	c-0.6-0.1-1,0-1.3,0.5c-1.1,2-2.2,4-3.3,6.1c-0.3,0.5-0.2,0.9,0.3,1.3c1.8,1.7,3.6,3.4,5.5,5c0.4,0.4,0.5,0.8,0.4,1.3
	c-0.2,1-0.4,2-0.7,3c-0.1,0.5-0.4,0.9-0.9,1.1c-0.9,0.3-1.9,0.7-2.8,1.1c-1.4,0.5-2.8,1-4.2,1.6c-0.5,0.2-0.9,0.5-0.8,1
	c0.1,1.4,0.2,2.7,0.3,4.1l25.3,1.2c-0.2-0.7-0.4-1.5-0.6-2.3c-1.3-8,4.1-15.5,12-16.9c8.2-1.5,15.7,4.1,17.1,11.9
	c0.5,3,0.1,5.9-1,8.5l25.4,1.2c0.2-1.3,0.4-2.6,0.7-3.9C133.2,53.8,133,53.4,132.5,53.1z"/>
</svg>
